<svg width="185" height="149" viewBox="0 0 185 149" fill="none" xmlns="http://www.w3.org/2000/svg">
<rect x="74.4043" y="0.164062" width="105" height="105" rx="20" transform="rotate(45 74.4043 0.164062)" fill="white" fill-opacity="0.05"/>
<path d="M132.124 125.136H76.3535V120.876C76.3535 115.741 80.4853 111.562 85.5978 111.562H119.697" stroke="#F36C2F" stroke-width="2" stroke-miterlimit="10"/>
<path d="M135.082 111.562C140.178 111.562 144.326 115.725 144.326 120.876V125.136" stroke="#F36C2F" stroke-width="2" stroke-miterlimit="10"/>
<path d="M151.545 59.7111C147.172 58.7716 142.43 60.0512 139.005 63.5015L119.568 83.0852C114.231 88.463 114.231 97.1777 119.456 102.442L138.668 121.799C143.893 127.064 152.542 127.064 157.879 121.686L177.316 102.102" stroke="#4F92CD" stroke-width="2" stroke-miterlimit="10"/>
<path d="M162.123 74.7917C158.216 74.7917 155.033 77.9989 155.033 81.9351C155.033 85.8713 158.216 89.0786 162.123 89.0786C166.03 89.0786 169.213 85.8713 169.213 81.9351C169.213 77.9827 166.03 74.7917 162.123 74.7917Z" stroke="#4F92CD" stroke-width="2" stroke-miterlimit="10"/>
<path d="M177.091 96.06L178.296 95.6389L181.978 89.192L181.737 87.9285L177.059 84.2029C177.171 83.4254 177.235 82.6803 177.235 81.9513C177.235 81.2224 177.187 80.4773 177.059 79.6998L181.737 75.958L181.978 74.6945L178.296 68.2638L177.091 67.8426L171.528 70.0618C170.354 69.1223 169.052 68.361 167.654 67.8102L166.785 61.8493L165.821 61.007H158.425L157.461 61.8493L156.593 67.8102C155.194 68.361 153.892 69.1223 152.718 70.0618L147.155 67.8426L145.95 68.2638L142.252 74.6945L142.493 75.958L147.188 79.6998C147.075 80.4773 147.027 81.2224 147.027 81.9513C147.027 82.6803 147.075 83.4254 147.188 84.2029L142.493 87.9285L142.252 89.192L145.95 95.6389L147.155 96.06L152.718 93.8409C153.892 94.7804 155.194 95.5417 156.593 96.0924L157.461 102.053L158.425 102.896H165.821L166.785 102.053L167.654 96.0924C169.052 95.5417 170.354 94.7804 171.528 93.8409L177.091 96.06Z" stroke="#F36C2F" stroke-width="2" stroke-miterlimit="10"/>
<path d="M111.884 95.3149C111.37 95.3473 110.856 95.3635 110.341 95.3635C96.9168 95.3635 86.0488 84.4135 86.0488 70.8879C86.0488 57.3623 96.9168 46.4123 110.341 46.4123C121.627 46.4123 131.112 54.1713 133.846 64.684" stroke="#4F92CD" stroke-width="2" stroke-miterlimit="10"/>
<path d="M134.327 74.7431C132.944 83.555 126.899 90.8118 118.812 93.8409" stroke="#4F92CD" stroke-width="2" stroke-miterlimit="10"/>
</svg>
