<svg width="169" height="149" viewBox="0 0 169 149" fill="none" xmlns="http://www.w3.org/2000/svg">
<rect x="74.2461" y="0.164062" width="105" height="105" rx="20" transform="rotate(45 74.2461 0.164062)" fill="#EEF8FF"/>
<path d="M123.23 109.79C125.102 106.042 126.981 102.091 129.613 98.9018C131.857 96.2706 134.409 94.4896 137.689 93.6395C142.574 92.1337 144.923 90.3527 148.949 87.2601C151.014 85.7624 152.796 83.6008 153.647 87.6406C154.109 89.8022 153.55 92.0528 151.776 93.2752L146.332 97.404C145.206 98.3431 146.511 100.213 147.831 99.2822L153.274 95.1534C154.692 94.1253 155.534 92.7166 155.907 91.0246L161.828 68.219C162.395 66.3408 164.833 64.4707 166.526 65.9765C165.87 74.5175 163.61 82.9613 162.671 91.5913C162.581 92.4333 162.209 93.3724 161.642 94.3196C159.487 98.1731 153.566 104.455 150.383 107.273C145.782 111.304 138.548 111.215 135.267 115.441L123.23 109.79Z" stroke="#206FB7" stroke-width="2" stroke-miterlimit="10"/>
<path d="M140.362 121.748L138.159 126.419C137.365 128.095 135.348 128.816 133.671 128.03L115.381 119.417C113.704 118.623 112.983 116.607 113.769 114.931L115.972 110.26C116.766 108.584 118.783 107.864 120.46 108.649L138.75 117.263C140.427 118.056 141.156 120.08 140.362 121.748Z" stroke="#F36B31" stroke-width="2" stroke-miterlimit="10"/>
<path d="M85.7572 115.45C82.4766 111.224 75.2431 111.313 70.6421 107.281C67.4587 104.464 61.5375 98.1814 59.3828 94.3279C58.8158 93.3807 58.4432 92.4335 58.3541 91.5996C57.4063 82.9696 55.1464 74.5258 54.4902 65.9848C56.1832 64.479 58.6214 66.3491 59.1884 68.2273L65.1097 91.0329C65.4823 92.7249 66.3247 94.1255 67.7422 95.1617L73.1856 99.2905C74.4978 100.222 75.8101 98.3514 74.6842 97.4123L69.2408 93.2835C67.4668 92.0611 66.8998 89.8186 67.3696 87.6489C68.2202 83.6011 70.0022 85.7707 72.0678 87.2684C76.0936 90.361 78.4427 92.142 83.3271 93.6478C86.6077 94.4979 89.1512 96.2789 91.4031 98.91C94.0357 102.108 95.9149 106.05 97.7861 109.799L85.7572 115.45Z" stroke="#206FB7" stroke-width="2" stroke-miterlimit="10"/>
<path d="M105.02 110.26L107.223 114.931C108.017 116.607 107.288 118.623 105.611 119.417L87.3208 128.03C85.644 128.824 83.6271 128.095 82.8332 126.419L80.63 121.748C79.8361 120.072 80.5652 118.056 82.2419 117.263L100.532 108.649C102.217 107.864 104.234 108.584 105.02 110.26Z" stroke="#F36B31" stroke-width="2" stroke-miterlimit="10"/>
<path d="M110.5 55C117.414 55 123 60.3705 123 67C123 73.6295 117.414 79 110.5 79C103.586 79 98 73.6295 98 67C98 60.3705 103.594 55 110.5 55Z" stroke="#206FB7" stroke-width="2" stroke-miterlimit="10"/>
<path d="M107.346 41H114.621C115.854 41 116.834 41.9797 116.834 43.2126V46.2171C118.475 46.6907 120.059 47.3275 121.545 48.1766L123.659 46.062C124.516 45.2047 125.937 45.2047 126.786 46.062L131.938 51.2138C132.795 52.0711 132.795 53.4918 131.938 54.3409L129.823 56.4555C130.648 57.9414 131.309 59.5254 131.783 61.1664H134.787C136.02 61.1664 137 62.1462 137 63.379V70.6536C137 71.9191 135.988 72.9315 134.6 72.8662H131.816C131.375 74.5073 130.705 76.1239 129.856 77.6098L131.971 79.7244C132.828 80.5817 132.828 81.9697 131.971 82.8515L126.786 87.938C125.929 88.7953 124.508 88.7953 123.659 87.938L121.545 85.8234C120.059 86.648 118.475 87.3093 116.834 87.7829V90.7874C116.834 92.0203 115.854 93 114.621 93H107.346C106.114 93 105.134 92.0203 105.134 90.7874V87.7829C103.493 87.3093 101.909 86.6725 100.423 85.8234L98.3082 87.938C97.4509 88.7953 96.063 88.7953 95.1812 87.938L90.0294 82.7862C89.1721 81.9289 89.1721 80.5082 90.0294 79.6591L92.144 77.5445C91.3194 76.0586 90.658 74.4746 90.1845 72.8336H87.2126C85.9797 72.8336 85 71.8538 85 70.621V63.3464C85 62.1135 85.9797 61.1338 87.2126 61.1338H90.1845C90.658 59.4927 91.3194 57.9088 92.144 56.4228L90.0294 54.3082C89.1721 53.4509 89.1721 52.0303 90.0294 51.1812L95.1812 46.0294C96.0385 45.1721 97.4591 45.1721 98.3082 46.0294L100.423 48.144C101.909 47.3194 103.517 46.658 105.166 46.1845V43.2126C105.134 41.9797 106.146 41 107.346 41Z" stroke="#F36B31" stroke-width="2" stroke-miterlimit="10"/>
</svg>
