<svg width="198" height="149" viewBox="0 0 198 149" fill="none" xmlns="http://www.w3.org/2000/svg">
<rect x="74.2461" y="0.164062" width="105" height="105" rx="20" transform="rotate(45 74.2461 0.164062)" fill="#EEF8FF"/>
<g clip-path="url(#clip0_4007_9)">
<path d="M113.642 49.5882C114.054 47.9975 114.547 47.1625 115.732 45.9811C117.477 44.2418 119.843 43.2646 122.31 43.2646H187.428C189.895 43.2646 192.261 44.2418 194.005 45.9811C195.75 47.7204 196.73 50.0794 196.73 52.5392V98.9117C196.73 101.371 195.75 103.73 194.005 105.47C192.261 107.209 189.895 108.186 187.428 108.186H131.613L113.008 126.735V101.441" stroke="#1E6FB7" stroke-width="2" stroke-linecap="round" stroke-linejoin="round"/>
<path d="M147.258 69.8235V93.8529" stroke="#F36C2F" stroke-width="2" stroke-linecap="round" stroke-linejoin="round"/>
<path d="M163.723 61.2336L161.676 69.5706H173.61C174.245 69.5706 174.872 69.7169 175.441 69.9978C176.009 70.2788 176.504 70.6868 176.885 71.1894C177.266 71.692 177.524 72.2755 177.638 72.8937C177.752 73.5118 177.718 74.1477 177.54 74.7508L172.771 90.9391C172.523 91.7797 172.005 92.5181 171.297 93.0435C170.588 93.5689 169.726 93.8529 168.84 93.8529H141.205C140.12 93.8529 139.078 93.4266 138.31 92.6676C137.543 91.9086 137.111 90.8792 137.111 89.8059V73.6177C137.111 72.5443 137.543 71.5149 138.31 70.7559C139.078 69.997 140.12 69.5706 141.205 69.5706H146.855C147.617 69.5702 148.363 69.3598 149.011 68.963C149.658 68.5662 150.18 67.9987 150.519 67.3245L157.582 53.3824C158.547 53.3942 159.497 53.6215 160.361 54.0473C161.225 54.4731 161.981 55.0864 162.571 55.8414C163.162 56.5963 163.572 57.4734 163.771 58.4072C163.971 59.3409 163.954 60.3071 163.723 61.2336Z" stroke="#F36C2F" stroke-width="2" stroke-linecap="round" stroke-linejoin="round"/>
<path d="M62.2683 89.2157C62.2683 90.9673 62.9662 92.6472 64.2086 93.8858C65.4509 95.1244 67.1359 95.8203 68.8928 95.8203H108.64L121.889 109.029V56.1928C121.889 54.4412 121.191 52.7613 119.948 51.5227C118.706 50.2841 117.021 49.5882 115.264 49.5882H68.8928C67.1359 49.5882 65.4509 50.2841 64.2086 51.5227C62.9662 52.7613 62.2683 54.4412 62.2683 56.1928V89.2157Z" stroke="#1E6FB7" stroke-width="2" stroke-linecap="round" stroke-linejoin="round"/>
<path d="M97.7871 68.5588V85" stroke="#F36C2F" stroke-width="2" stroke-linecap="round" stroke-linejoin="round"/>
<path d="M85.4399 62.5743L86.9752 68.3059H78.0245C77.5479 68.3059 77.0777 68.4065 76.6514 68.5997C76.225 68.7928 75.8541 69.0733 75.5681 69.4189C75.2821 69.7644 75.0888 70.1656 75.0035 70.5906C74.9183 71.0155 74.9433 71.4527 75.0768 71.8673L78.654 82.9967C78.84 83.5747 79.2279 84.0824 79.7594 84.4436C80.2909 84.8048 80.9373 85 81.6017 85H102.328C103.142 85 103.923 84.7069 104.499 84.1851C105.075 83.6633 105.398 82.9556 105.398 82.2177V71.0883C105.398 70.3504 105.075 69.6427 104.499 69.1209C103.923 68.5991 103.142 68.3059 102.328 68.3059H98.0905C97.5193 68.3057 96.9595 68.161 96.474 67.8882C95.9885 67.6154 95.5966 67.2253 95.3424 66.7617L90.0457 57.1765C89.3217 57.1846 88.6091 57.3409 87.9611 57.6336C87.3131 57.9264 86.7465 58.348 86.3036 58.8671C85.8607 59.3861 85.553 59.9891 85.4035 60.6311C85.2539 61.273 85.2664 61.9373 85.4399 62.5743Z" stroke="#F36C2F" stroke-width="2" stroke-linecap="round" stroke-linejoin="round"/>
</g>
<defs>
<clipPath id="clip0_4007_9">
<rect width="137" height="86" fill="white" transform="translate(61 42)"/>
</clipPath>
</defs>
</svg>
