<svg width="166" height="149" viewBox="0 0 166 149" fill="none" xmlns="http://www.w3.org/2000/svg">
<rect opacity="0.05" x="74.2461" y="0.164062" width="105" height="105" rx="20" transform="rotate(45 74.2461 0.164062)" fill="white"/>
<path d="M116.99 61.7241C128.947 61.7241 138.628 71.4665 138.628 83.4999C138.628 95.5333 128.947 105.276 116.99 105.276C105.032 105.276 95.3516 95.5333 95.3516 83.4999C95.3516 71.4665 105.032 61.7241 116.99 61.7241Z" stroke="#206FB7" stroke-width="2" stroke-miterlimit="10"/>
<path d="M112.361 50.3333H121.574C123.138 50.3333 124.382 51.5858 124.382 53.1596V56.9923C126.467 57.5918 128.467 58.4055 130.35 59.4975L133.031 56.7996C134.116 55.7076 135.914 55.7076 136.999 56.7996L143.531 63.373C144.616 64.465 144.616 66.2743 143.531 67.3663L140.85 70.0642C141.893 71.9591 142.733 73.9718 143.34 76.0702H147.148C148.712 76.0702 149.957 77.3228 149.957 78.8965V88.1678C149.957 89.7844 148.67 91.0691 146.914 90.9942H143.393C142.829 93.0925 141.989 95.1481 140.904 97.043L143.584 99.7409C144.67 100.833 144.67 102.599 143.584 103.734L137.01 110.222C135.925 111.314 134.127 111.314 133.042 110.222L130.361 107.524C128.478 108.573 126.478 109.419 124.393 110.029V113.862C124.393 115.436 123.148 116.688 121.584 116.688H112.372C110.808 116.688 109.563 115.436 109.563 113.862V110.029C107.478 109.43 105.478 108.616 103.595 107.524L100.914 110.222C99.8291 111.314 98.0738 111.314 96.9461 110.222L90.4142 103.649C89.3291 102.557 89.3291 100.747 90.4142 99.6552L93.0951 96.9574C92.0525 95.0624 91.2121 93.0497 90.6057 90.9514H86.8398C85.2759 90.9514 84.0312 89.6988 84.0312 88.125V78.8537C84.0312 77.28 85.2759 76.0274 86.8398 76.0274H90.6057C91.2015 73.929 92.0525 71.9163 93.0951 70.0214L90.4142 67.3235C89.3291 66.2315 89.3291 64.4222 90.4142 63.3302L96.9461 56.7568C98.0312 55.6648 99.8291 55.6648 100.914 56.7568L103.595 59.4547C105.478 58.4055 107.521 57.5597 109.606 56.9495V53.1596C109.553 51.5858 110.84 50.3333 112.361 50.3333Z" stroke="#F36B31" stroke-width="2" stroke-miterlimit="10"/>
<path d="M127.138 77.0293C127.138 82.6713 122.595 89.6837 116.989 89.6837C111.382 89.6837 106.84 82.6713 106.84 77.0293C106.84 71.3873 111.382 66.8159 116.989 66.8159C122.595 66.8159 127.138 71.3873 127.138 77.0293Z" stroke="#F36B31" stroke-width="2" stroke-miterlimit="10"/>
<path d="M119.352 99.5097H114.415C113.979 99.5097 113.618 99.1993 113.533 98.771L111.884 89.7567C111.777 89.2 112.203 88.6968 112.767 88.6968L116.99 91.0414L121.001 88.6968C121.554 88.6968 121.979 89.2107 121.884 89.7567L120.235 98.771C120.15 99.1993 119.788 99.5097 119.352 99.5097Z" stroke="#F36B31" stroke-width="2" stroke-miterlimit="10"/>
<path d="M114.617 85.0202L116.511 89.1848" stroke="#F36B31" stroke-width="2" stroke-miterlimit="10"/>
<path d="M119.213 84.9346L117.309 89.0992" stroke="#F36B31" stroke-width="2" stroke-miterlimit="10"/>
<path d="M112.746 82.4295L116.193 80.2562L117.438 82.4295L121.618 80.0742" stroke="#206FB7" stroke-width="2" stroke-miterlimit="10"/>
<path d="M121.895 39.3596C143.522 39.3596 161.054 57.0029 161.054 78.768" stroke="#206FB7" stroke-width="2" stroke-miterlimit="10"/>
<path d="M161.065 84.0995C162.657 84.0995 163.948 82.8006 163.948 81.1982C163.948 79.5959 162.657 78.2969 161.065 78.2969C159.472 78.2969 158.182 79.5959 158.182 81.1982C158.182 82.8006 159.472 84.0995 161.065 84.0995Z" stroke="#206FB7" stroke-width="2" stroke-miterlimit="10"/>
<path d="M109.755 127.009C88.1276 127.009 70.5957 109.365 70.5957 87.6003" stroke="#206FB7" stroke-width="2" stroke-miterlimit="10"/>
<path d="M70.5959 88.0714C72.1881 88.0714 73.4788 86.7724 73.4788 85.1701C73.4788 83.5678 72.1881 82.2688 70.5959 82.2688C69.0036 82.2688 67.7129 83.5678 67.7129 85.1701C67.7129 86.7724 69.0036 88.0714 70.5959 88.0714Z" stroke="#206FB7" stroke-width="2" stroke-miterlimit="10"/>
</svg>
