<svg width="149" height="149" viewBox="0 0 149 149" fill="none" xmlns="http://www.w3.org/2000/svg">
<rect opacity="0.05" x="74.4043" y="0.164062" width="105" height="105" rx="20" transform="rotate(45 74.4043 0.164062)" fill="white"/>
<path d="M80.8878 47.64C92.6478 51.74 105.528 51.74 117.288 47.64C124.558 46.17 138.478 40.57 138.108 46.55C138.108 63.88 138.108 81.2 138.108 98.53C138.108 105.11 123.698 115.18 117.318 118.94C99.9878 129.27 98.2078 129.27 80.8678 118.94C74.4678 115.19 60.0678 105.11 60.0678 98.53C60.0678 81.2 60.0678 63.88 60.0678 46.55C59.6978 40.57 73.6178 46.18 80.8878 47.64Z" stroke="#1E6FB7" stroke-width="2" stroke-miterlimit="10"/>
<path d="M84.1485 54.39C93.7985 57.75 104.369 57.75 114.019 54.39C119.979 53.19 131.409 48.58 131.109 53.5C131.109 67.72 131.109 81.94 131.109 96.16C131.109 101.56 119.289 109.83 114.039 112.91C99.8085 121.39 98.3485 121.39 84.1285 112.91C78.8885 109.82 67.0585 101.55 67.0585 96.15C67.0585 81.93 67.0585 67.71 67.0585 53.49C66.7585 48.58 78.1785 53.19 84.1485 54.39Z" stroke="#F36B2F" stroke-width="2" stroke-miterlimit="10"/>
<path d="M100.278 88.6099C107.33 88.6099 113.048 82.8926 113.048 75.8399C113.048 68.7873 107.33 63.0699 100.278 63.0699C93.2251 63.0699 87.5078 68.7873 87.5078 75.8399C87.5078 82.8926 93.2251 88.6099 100.278 88.6099Z" stroke="#F36B2F" stroke-width="2" stroke-miterlimit="10"/>
<path d="M79.1387 109.67V100.1C79.1387 96.93 81.7087 94.35 84.8887 94.35H115.669C118.839 94.35 121.419 96.92 121.419 100.1V107.9" stroke="#F36B2F" stroke-width="2" stroke-miterlimit="10"/>
</svg>
