<svg width="159" height="149" viewBox="0 0 159 149" fill="none" xmlns="http://www.w3.org/2000/svg">
<rect x="74.2461" y="0.164062" width="105" height="105" rx="20" transform="rotate(45 74.2461 0.164062)" fill="#EEF8FF"/>
<g clip-path="url(#clip0_4007_8)">
<path d="M78.4336 79.5528C81.2398 67.163 90.7226 57.3081 102.888 53.9915" stroke="#206FB7" stroke-width="2" stroke-miterlimit="10"/>
<path d="M82.4648 104.917C81.7141 103.668 81.0435 102.367 80.4531 101.023" stroke="#206FB7" stroke-width="2" stroke-miterlimit="10"/>
<path d="M135.039 112.69C128.953 118.169 120.753 121.639 111.926 121.639C102.465 121.639 93.901 117.803 87.6836 111.601" stroke="#206FB7" stroke-width="2" stroke-miterlimit="10"/>
<path d="M142.934 101.768C142.73 102.236 142.905 102.112 142.679 102.565C142.132 103.668 141.126 105.092 140.463 106.122" stroke="#206FB7" stroke-width="2" stroke-miterlimit="10"/>
<path d="M122.613 54.4809C134.494 58.3746 143.518 68.5802 145.748 81.1453" stroke="#206FB7" stroke-width="2" stroke-miterlimit="10"/>
<path d="M112.867 59.4192C118.95 59.4192 123.88 54.4772 123.88 48.3809C123.88 42.2846 118.95 37.3425 112.867 37.3425C106.784 37.3425 101.854 42.2846 101.854 48.3809C101.854 54.4772 106.784 59.4192 112.867 59.4192Z" stroke="#F36B31" stroke-width="2" stroke-miterlimit="10"/>
<path d="M97.459 68.003C97.459 65.6872 99.3322 63.8025 101.65 63.8025H124.085C126.396 63.8025 128.276 65.6799 128.276 68.003V69.9243H97.459V68.003Z" stroke="#F36B31" stroke-width="2" stroke-miterlimit="10"/>
<path d="M82.0505 101.016C88.1331 101.016 93.064 96.0737 93.064 89.9774C93.064 83.8811 88.1331 78.9391 82.0505 78.9391C75.968 78.9391 71.0371 83.8811 71.0371 89.9774C71.0371 96.0737 75.968 101.016 82.0505 101.016Z" stroke="#F36B31" stroke-width="2" stroke-miterlimit="10"/>
<path d="M66.6406 109.351C66.6406 107.035 68.5139 105.151 70.8317 105.151H93.2668C95.5773 105.151 97.4578 107.028 97.4578 109.351V111.272H66.6406V109.351Z" stroke="#F36B31" stroke-width="2" stroke-miterlimit="10"/>
<path d="M142.01 102.228C148.092 102.228 153.023 97.2864 153.023 91.1901C153.023 85.0938 148.092 80.1517 142.01 80.1517C135.927 80.1517 130.996 85.0938 130.996 91.1901C130.996 97.2864 135.927 102.228 142.01 102.228Z" stroke="#F36B31" stroke-width="2" stroke-miterlimit="10"/>
<path d="M126.6 110.564C126.6 108.248 128.473 106.363 130.791 106.363H153.226C155.536 106.363 157.417 108.241 157.417 110.564V112.485H126.6V110.564Z" stroke="#F36B31" stroke-width="2" stroke-miterlimit="10"/>
<path d="M112.255 99.4743C118.434 99.4743 123.443 94.4538 123.443 88.2607C123.443 82.0675 118.434 77.047 112.255 77.047C106.076 77.047 101.066 82.0675 101.066 88.2607C101.066 94.4538 106.076 99.4743 112.255 99.4743Z" stroke="#206FB7" stroke-width="2" stroke-miterlimit="10"/>
</g>
<defs>
<clipPath id="clip0_4007_8">
<rect width="94" height="87" fill="white" transform="translate(65 36)"/>
</clipPath>
</defs>
</svg>
