<svg width="32" height="32" viewBox="0 0 32 32" fill="none" xmlns="http://www.w3.org/2000/svg">
<g clip-path="url(#clip0_2052_80)">
<path d="M19.0474 11.4284C19.0474 12.2367 18.7263 13.0118 18.1548 13.5834C17.5833 14.1549 16.8081 14.476 15.9998 14.476H6.85696L0.761719 20.5712V3.80934C0.761719 2.13315 2.13315 0.761719 3.80934 0.761719H15.9998C16.8081 0.761719 17.5833 1.08281 18.1548 1.65435C18.7263 2.22589 19.0474 3.00106 19.0474 3.80934V11.4284Z" stroke="#FD6925" stroke-width="2" stroke-linecap="round" stroke-linejoin="round"/>
<path d="M25.1436 11.4287H28.1912C28.9995 11.4287 29.7747 11.7498 30.3462 12.3213C30.9178 12.8929 31.2388 13.6681 31.2388 14.4763V31.2382L25.1436 25.143H16.0007C15.1925 25.143 14.4173 24.8219 13.8458 24.2504C13.2742 23.6788 12.9531 22.9037 12.9531 22.0954V20.5716" stroke="#FD6925" stroke-width="2" stroke-linecap="round" stroke-linejoin="round"/>
</g>
<defs>
<clipPath id="clip0_2052_80">
<rect width="32" height="32" fill="white"/>
</clipPath>
</defs>
</svg>
