<svg width="152" height="149" viewBox="0 0 152 149" fill="none" xmlns="http://www.w3.org/2000/svg">
<rect x="74.2461" width="105" height="105" rx="40" transform="rotate(45 74.2461 0)" fill="white" fill-opacity="0.05"/>
<g clip-path="url(#clip0_4007_2)">
<path d="M75.8869 89.2117L74.3242 91.92L76.0389 92.9107L77.6015 90.2024L75.8869 89.2117Z" fill="white"/>
<path d="M89.5023 65.6172L79.8438 82.3568L81.5584 83.3474L91.2169 66.6078L89.5023 65.6172Z" fill="#FD6925"/>
<path d="M78.6388 84.4423L77.0762 87.1506L78.7908 88.1413L80.3535 85.433L78.6388 84.4423Z" fill="#FD6925"/>
<path d="M73.5626 107.133L72 109.841L73.7146 110.831L75.2772 108.123L73.5626 107.133Z" fill="white"/>
<path d="M87.1762 83.5383L77.5176 100.278L79.2322 101.269L88.8908 84.5289L87.1762 83.5383Z" fill="#FD6925"/>
<path d="M76.3146 102.363L74.752 105.071L76.4666 106.062L78.0293 103.354L76.3146 102.363Z" fill="#FD6925"/>
<path d="M136.082 108.085L134.52 110.794L136.234 111.784L137.797 109.076L136.082 108.085Z" fill="white"/>
<path d="M149.696 84.4912L140.037 101.231L141.752 102.221L151.41 85.4818L149.696 84.4912Z" fill="#FD6925"/>
<path d="M138.834 103.315L137.271 106.024L138.986 107.014L140.549 104.306L138.834 103.315Z" fill="#FD6925"/>
<path d="M123.551 115.91L121.988 118.618L123.703 119.609L125.266 116.901L123.551 115.91Z" fill="white"/>
<path d="M137.165 92.3167L127.506 109.057L129.22 110.047L138.879 93.3073L137.165 92.3167Z" fill="#FD6925"/>
<path d="M126.305 111.14L124.742 113.849L126.457 114.839L128.019 112.131L126.305 111.14L126.305 111.14Z" fill="#FD6925"/>
<g clip-path="url(#clip1_4007_2)">
<path d="M107.108 83.6108C110.756 77.293 109.805 69.2136 104.769 64.0087C102.995 62.2185 100.672 60.4944 98.0871 59.0022C96.9384 58.339 96.8062 57.2417 97.0016 56.4611C97.2523 55.5847 97.9964 54.738 99.23 54.8121C104.069 55.053 108.844 57.1719 113.022 60.9881C113.541 61.4155 114.186 61.4046 114.613 60.8856C115.04 60.3665 115.029 59.7221 114.51 59.2947C109.909 55.1064 104.6 52.8069 99.2675 52.5364C97.1428 52.4584 95.2312 53.7797 94.7151 55.7791C94.1436 57.8742 95.012 59.9071 96.8308 60.9572C99.3196 62.3941 101.411 63.8567 102.994 65.5364C107.278 70.0523 108.097 77.0344 104.947 82.4906C104.616 83.065 104.873 83.7242 105.352 84.0006C106.022 84.3874 106.777 84.1851 107.108 83.6108Z" fill="white"/>
<path d="M125.863 55.7669L128.792 50.6935C130.063 48.4919 129.294 45.6231 127.093 44.3519C124.891 43.0808 122.022 43.8495 120.751 46.0512L111.743 61.6542C111.411 62.2285 111.669 62.8878 112.147 63.1641C112.626 63.4404 113.381 63.2382 113.657 62.7595L122.666 47.1565C123.329 46.0078 124.839 45.6032 125.987 46.2664C127.136 46.9296 127.541 48.4395 126.877 49.5882L123.948 54.6616C123.617 55.2359 123.874 55.8952 124.353 56.1715C124.832 56.4478 125.531 56.3413 125.863 55.7669Z" fill="white"/>
<path d="M130.513 61.6419L133.442 56.5685C134.713 54.3669 133.945 51.4981 131.743 50.2269L128.68 48.4584C128.106 48.1268 127.446 48.3844 127.17 48.863C126.838 49.4373 127.096 50.0966 127.575 50.3729L130.638 52.1414C131.786 52.8046 132.191 54.3145 131.528 55.4632L128.599 60.5366C128.267 61.1109 128.525 61.7702 129.003 62.0465C129.578 62.3781 130.182 62.2163 130.513 61.6419Z" fill="white"/>
<path d="M135.148 67.7635L138.077 62.6901C139.348 60.4885 138.579 57.6197 136.378 56.3485L133.315 54.58C132.74 54.2484 132.081 54.506 131.805 54.9846C131.473 55.5589 131.731 56.2182 132.209 56.4945L135.273 58.263C136.421 58.9262 136.826 60.4361 136.163 61.5848L133.233 66.6582C132.902 67.2325 133.159 67.8918 133.638 68.1681C134.117 68.4444 134.872 68.2421 135.148 67.7635Z" fill="white"/>
<path d="M139.408 74.3085L142.337 69.2351C143.608 67.0334 142.839 64.1646 140.638 62.8935L137.67 61.1802C137.096 60.8486 136.437 61.1062 136.16 61.5848C135.829 62.1591 136.086 62.8184 136.565 63.0947L139.628 64.8632C140.777 65.5264 141.181 67.0363 140.518 68.185L137.589 73.2584C137.257 73.8327 137.515 74.492 137.994 74.7683C138.417 75.1404 139.076 74.8828 139.408 74.3085Z" fill="white"/>
<path d="M139.409 74.3084C139.741 73.7341 139.483 73.0748 139.005 72.7985C138.43 72.4669 137.771 72.7245 137.495 73.2031C136.058 75.6919 134.238 77.9597 131.829 80.1426C131.568 80.3745 131.251 80.7021 130.989 80.934C128.993 82.8445 126.901 84.6998 125.464 87.1886L122.479 92.3577C122.148 92.932 122.405 93.5913 122.884 93.8676C123.458 94.1992 124.117 93.9416 124.394 93.463L127.378 88.2939C128.649 86.0923 130.535 84.3732 132.476 82.5584C132.793 82.2308 133.055 81.9989 133.372 81.6712C135.932 79.4479 137.807 77.0844 139.409 74.3084Z" fill="white"/>
<path d="M120.326 107.58L127.4 95.3272C127.732 94.7529 127.474 94.0937 126.996 93.8173L103.352 80.1666C102.777 79.835 102.118 80.0925 101.842 80.5711L94.7678 92.8238C94.4362 93.3982 94.6937 94.0574 95.1724 94.3337C95.7467 94.6653 96.4059 94.4078 96.6823 93.9291L103.148 82.7294L124.782 95.2196L118.316 106.419C117.984 106.994 118.242 107.653 118.72 107.929C119.199 108.206 120.05 108.059 120.326 107.58Z" fill="white"/>
<path d="M96 94L119.252 107.568" stroke="white" stroke-width="2" stroke-linecap="round"/>
</g>
</g>
<defs>
<clipPath id="clip0_4007_2">
<rect width="80" height="80" fill="white" transform="translate(72 41)"/>
</clipPath>
<clipPath id="clip1_4007_2">
<rect width="59.2455" height="48.2365" fill="white" transform="matrix(-0.5 0.866025 0.866025 0.5 107.623 33.1108)"/>
</clipPath>
</defs>
</svg>
