<svg width="149" height="149" viewBox="0 0 149 149" fill="none" xmlns="http://www.w3.org/2000/svg">
<rect x="74.2461" width="105" height="105" rx="40" transform="rotate(45 74.2461 0)" fill="white" fill-opacity="0.05"/>
<path d="M108.898 110.694C124.618 110.694 137.362 97.8169 137.362 81.932C137.362 66.0472 124.618 53.1699 108.898 53.1699C93.1775 53.1699 80.4336 66.0472 80.4336 81.932C80.4336 97.8169 93.1775 110.694 108.898 110.694Z" stroke="white" stroke-width="2" stroke-miterlimit="10"/>
<path d="M118.289 43.6781C134.009 43.6781 146.753 56.5555 146.753 72.4402" stroke="#FD6925" stroke-width="2" stroke-miterlimit="10"/>
<path d="M99.7064 119.977C83.9862 119.977 71.2422 107.099 71.2422 91.2147" stroke="#FD6925" stroke-width="2" stroke-miterlimit="10"/>
<path d="M108.999 92.5806C114.877 92.5806 119.643 87.7654 119.643 81.8256C119.643 75.8858 114.877 71.0706 108.999 71.0706C103.121 71.0706 98.3555 75.8858 98.3555 81.8256C98.3555 87.7654 103.121 92.5806 108.999 92.5806Z" stroke="#FD6925" stroke-width="2" stroke-miterlimit="10"/>
<path d="M128.377 81.9321H146.754" stroke="white" stroke-width="2" stroke-miterlimit="10"/>
<path d="M71.2422 81.9321H89.6224" stroke="white" stroke-width="2" stroke-miterlimit="10"/>
<path d="M108.998 62.247V43.6781" stroke="white" stroke-width="2" stroke-miterlimit="10"/>
<path d="M108.998 119.977V101.408" stroke="white" stroke-width="2" stroke-miterlimit="10"/>
</svg>
