<svg width="1252" height="1920" viewBox="0 0 1252 1920" fill="none" xmlns="http://www.w3.org/2000/svg">
<path d="M764.424 691.091C748.679 706.835 723.153 706.835 707.408 691.091L560.309 543.992C544.565 528.248 544.565 502.721 560.309 486.977L1018.78 28.5074C1034.52 12.7631 1060.05 12.7631 1075.79 28.5074L1222.89 175.606C1238.64 191.351 1238.64 216.877 1222.89 232.622L764.424 691.091Z" fill="#F8FCFF"/>
<rect x="1168.94" y="1723.83" width="276.823" height="1151.73" rx="40.3158" transform="rotate(135 1168.94 1723.83)" fill="#F8FCFF"/>
<path d="M589.614 459.097C606.788 441.923 634.634 441.923 651.808 459.097L812.271 619.56C829.445 636.734 829.445 664.58 812.271 681.755L253.754 1240.27C236.579 1257.45 208.734 1257.45 191.559 1240.27L31.0969 1079.81C13.9223 1062.63 13.9223 1034.79 31.0969 1017.61L589.614 459.097Z" fill="#003274"/>
<rect x="399.916" y="706" width="23.3832" height="52.6779" rx="11.6916" transform="rotate(41.7986 399.916 706)" fill="#FD6925"/>
<line x1="1219.42" y1="757.591" x2="1239.57" y2="757.591" stroke="#6CACE4" stroke-width="0.403158"/>
<line x1="1107.59" y1="698.304" x2="1127.75" y2="698.304" stroke="#6CACE4" stroke-width="0.403158"/>
<line x1="294" y1="365.151" x2="316.396" y2="365.151" stroke="white" stroke-width="0.447917"/>
<rect x="438.34" y="1040" width="24.8801" height="62.7049" rx="12.44" transform="rotate(45 438.34 1040)" fill="#FD6925"/>
<rect x="365.299" y="1228.59" width="61.7278" height="114.056" rx="30.8639" transform="rotate(135 365.299 1228.59)" fill="#F8FCFF"/>
</svg>
