<svg width="2703" height="4212" viewBox="0 0 2703 4212" fill="none" xmlns="http://www.w3.org/2000/svg">
<path d="M1731 1477.36C1691.95 1516.41 1628.63 1516.41 1589.58 1477.36L1224.71 1112.49C1185.66 1073.44 1185.66 1010.12 1224.71 971.067L2125.07 70.7113C2164.12 31.6589 2227.44 31.659 2266.49 70.7114L2631.36 435.578C2670.41 474.631 2670.41 537.947 2631.36 577L1731 1477.36Z" fill="#F8FCFF"/>
<rect x="2696.8" y="3641.71" width="645" height="2215.29" rx="100" transform="rotate(135 2696.8 3641.71)" fill="#F8FCFF"/>
<path d="M1361.14 830.711C1400.2 791.658 1463.51 791.658 1502.56 830.711L1867.43 1195.58C1906.48 1234.63 1906.48 1297.95 1867.43 1337L577.795 2626.64C538.743 2665.69 475.426 2665.69 436.374 2626.64L71.5067 2261.77C32.4543 2222.72 32.4543 2159.4 71.5067 2120.35L1361.14 830.711Z" fill="#003274"/>
<rect x="1032.24" y="2615.4" width="203.228" height="375.509" rx="100" transform="rotate(138.188 1032.24 2615.4)" fill="#F8FCFF"/>
<rect x="1285.39" y="1879" width="58" height="130.663" rx="29" transform="rotate(45 1285.39 1879)" fill="#FD6925"/>
<rect x="1136.98" y="4211.43" width="645" height="1413.06" rx="100" transform="rotate(-135 1136.98 4211.43)" fill="#F8FCFF"/>
</svg>
