<svg width="3098" height="3704" viewBox="0 0 3098 3704" fill="none" xmlns="http://www.w3.org/2000/svg">
<line x1="2977.84" y1="231.336" x2="3027.84" y2="231.336" stroke="#6CACE4"/>
<rect x="456.084" y="3233.15" width="645" height="3736.21" rx="100" transform="rotate(-135 456.084 3233.15)" fill="#025EA1"/>
<rect x="487.229" y="3193.85" width="439.506" height="778.735" rx="100" transform="rotate(-45 487.229 3193.85)" fill="#003274"/>
<rect width="213.446" height="312.616" rx="100" transform="matrix(-0.707107 0.707107 0.707107 0.707107 722.93 2809)" fill="#003274"/>
<path d="M2622.66 1228.33C2583.6 1267.38 2520.29 1267.38 2481.23 1228.33L1829.62 576.72C1790.57 537.668 1790.57 474.351 1829.62 435.299L2194.05 70.8738C2233.1 31.8213 2296.42 31.8213 2335.47 70.8738L2987.08 722.485C3026.13 761.537 3026.13 824.854 2987.08 863.906L2622.66 1228.33Z" fill="#003274"/>
<rect x="2028.44" y="1014.45" width="187.964" height="249.004" rx="93.9821" transform="rotate(-135 2028.44 1014.45)" fill="#025EA1"/>
<rect x="1065.59" y="3121.58" width="58" height="266.689" rx="29" transform="rotate(135 1065.59 3121.58)" fill="#FD6925"/>
</svg>
