<svg width="1249" height="2326" viewBox="0 0 1249 2326" fill="none" xmlns="http://www.w3.org/2000/svg">
<g clip-path="url(#clip0_4023_3876)">
<rect x="183.68" y="1881.98" width="260.037" height="1506.28" rx="40.3158" transform="rotate(-135 183.68 1881.98)" fill="#025EA1"/>
<path d="M1051.03 976.146C1035.28 991.89 1009.76 991.89 994.012 976.146L731.31 713.444C715.566 697.699 715.566 672.173 731.31 656.429L878.231 509.508C893.975 493.763 919.502 493.763 935.246 509.508L1197.95 772.21C1213.69 787.954 1213.69 813.481 1197.95 829.225L1051.03 976.146Z" fill="#003274"/>
<rect x="850.387" y="956.571" width="75.7793" height="130.09" rx="37.8896" transform="rotate(-135 850.387 956.571)" fill="#025EA1"/>
<rect x="74.668" y="1971.98" width="318.401" height="574.057" rx="40.7304" transform="rotate(-45.2461 74.668 1971.98)" fill="#003274"/>
<rect width="86.9374" height="127.33" rx="40.7304" transform="matrix(-0.704063 0.710137 0.710137 0.704063 268.605 1716)" fill="#003274"/>
<rect x="610.512" y="2037.81" width="23.6236" height="108.624" rx="11.8118" transform="rotate(135 610.512 2037.81)" fill="#FD6925"/>
</g>
<defs>
<clipPath id="clip0_4023_3876">
<rect width="1249" height="2326" fill="white"/>
</clipPath>
</defs>
</svg>
