<svg width="941" height="1637" viewBox="0 0 941 1637" fill="none" xmlns="http://www.w3.org/2000/svg">
<rect x="179.363" y="80.6494" width="61.7278" height="114.056" rx="30.8639" transform="rotate(135 179.363 80.6494)" fill="#F8FCFF"/>
<rect x="237.43" y="1148.37" width="335.511" height="994.375" rx="40.3158" transform="rotate(-135 237.43 1148.37)" fill="#025EA1"/>
<path d="M689.437 551.146C673.693 566.891 648.166 566.891 632.422 551.146L369.72 288.444C353.976 272.7 353.976 247.173 369.72 231.429L516.641 84.5081C532.385 68.7638 557.912 68.7638 573.656 84.5081L836.358 347.21C852.102 362.955 852.102 388.481 836.358 404.225L689.437 551.146Z" fill="#003274"/>
<rect x="484.584" y="534.572" width="75.7793" height="130.09" rx="37.8896" transform="rotate(-135 484.584 534.572)" fill="#025EA1"/>
<rect x="164.035" y="1092.84" width="260.584" height="569.623" rx="40.7304" transform="rotate(-45 164.035 1092.84)" fill="#F8FCFF"/>
<rect x="401.266" y="856" width="95.6985" height="172.172" rx="47.8492" transform="rotate(45.2461 401.266 856)" fill="#F8FCFF"/>
<rect x="633.791" y="1129" width="179.012" height="574.057" rx="40.7304" transform="rotate(46.6915 633.791 1129)" fill="#003274"/>
</svg>
