<svg width="2602" height="3195" viewBox="0 0 2602 3195" fill="none" xmlns="http://www.w3.org/2000/svg">
<rect x="350.039" y="2315.71" width="58" height="249.35" rx="29" transform="rotate(45 350.039 2315.71)" fill="#EEF8FF"/>
<g filter="url(#filter0_f_4021_3864)">
<ellipse cx="659.029" cy="2038.5" rx="347.013" ry="443.573" transform="rotate(-45 659.029 2038.5)" fill="#3D90CD" fill-opacity="0.2"/>
</g>
<path d="M1421.95 2059.41C1382.9 2098.46 1319.58 2098.46 1280.53 2059.41L965.869 1744.75C926.817 1705.69 926.817 1642.38 965.869 1603.33L2075.32 493.875C2114.37 454.823 2177.69 454.823 2216.74 493.875L2531.4 808.538C2570.46 847.59 2570.46 910.906 2531.4 949.959L1421.95 2059.41Z" fill="white"/>
<path d="M1554.46 3124.05C1515.41 3163.1 1452.1 3163.1 1413.04 3124.05L761.432 2472.44C722.38 2433.39 722.38 2370.07 761.432 2331.02L1140.77 1951.68C1179.82 1912.63 1243.14 1912.63 1282.19 1951.68L1933.8 2603.29C1972.86 2642.34 1972.86 2705.66 1933.8 2744.71L1554.46 3124.05Z" fill="#035EA1"/>
<path d="M1122.05 1668.87C1083 1707.92 1019.68 1707.92 980.631 1668.87L576.79 1265.03C537.737 1225.97 537.737 1162.66 576.79 1123.6L1525.93 174.468C1564.98 135.416 1628.3 135.416 1667.35 174.468L2071.19 578.309C2110.24 617.362 2110.24 680.678 2071.19 719.731L1122.05 1668.87Z" fill="#025EA1"/>
<rect x="1623.72" y="2476.72" width="58" height="266.689" rx="29" transform="rotate(-45 1623.72 2476.72)" fill="#259789"/>
<path fill-rule="evenodd" clip-rule="evenodd" d="M1368.12 2030.06L714.345 1376.29L733.109 1357.53C757.25 1333.39 757.25 1294.25 733.109 1270.11C708.969 1245.96 669.829 1245.96 645.688 1270.11L562.543 1353.25C560.273 1355.15 558.067 1357.17 555.934 1359.3L148.604 1766.63L138.29 1776.95L138.289 1776.95C99.2369 1816 99.2368 1879.31 138.289 1918.37L138.29 1918.37L809.053 2589.13C809.142 2589.22 809.231 2589.31 809.32 2589.4L884.399 2664.48C923.452 2703.53 986.768 2703.53 1025.82 2664.48L1036.13 2654.16C1075.19 2615.11 1075.19 2551.79 1036.13 2512.74L1031.5 2508.11L1368.12 2171.49C1407.17 2132.43 1407.17 2069.12 1368.12 2030.06Z" fill="#003274"/>
<path d="M837.632 1726.89C798.58 1765.95 735.264 1765.95 696.211 1726.89L600.711 1631.39C561.658 1592.34 561.658 1529.03 600.711 1489.97L777.973 1312.71C817.026 1273.66 880.342 1273.66 919.395 1312.71L1014.9 1408.21C1053.95 1447.26 1053.95 1510.58 1014.9 1549.63L837.632 1726.89Z" fill="#025EA1"/>
<rect x="396.578" y="1479" width="58" height="266.689" rx="29" transform="rotate(45 396.578 1479)" fill="#FD6925"/>
<rect x="1832.04" y="1460.71" width="58" height="249.35" rx="29" transform="rotate(45 1832.04 1460.71)" fill="#EEF8FF"/>
<rect x="1814.04" y="1875.71" width="58" height="249.35" rx="29" transform="rotate(45 1814.04 1875.71)" fill="#EEF8FF"/>
<path d="M1857.63 484.895C1818.58 523.947 1755.26 523.947 1716.21 484.895L1620.71 389.394C1581.66 350.342 1581.66 287.025 1620.71 247.973L1797.97 70.7104C1837.03 31.658 1900.34 31.658 1939.39 70.7104L2034.9 166.211C2073.95 205.263 2073.95 268.58 2034.9 307.632L1857.63 484.895Z" fill="#03326F"/>
<rect x="1601.25" y="90" width="238.672" height="381.579" rx="119.336" transform="rotate(43.0026 1601.25 90)" fill="#025EA1"/>
<rect x="1446.58" y="225" width="58" height="266.689" rx="29" transform="rotate(45 1446.58 225)" fill="#FD6925"/>
<rect x="176.477" y="683.164" width="58" height="249.35" rx="29" transform="rotate(45 176.477 683.164)" fill="#EEF8FF"/>
<rect x="1109.52" y="562.164" width="58" height="266.689" rx="29" transform="rotate(45 1109.52 562.164)" fill="#259789"/>
<path d="M738.354 1176.35C738.549 1176.16 738.549 1175.84 738.354 1175.65L735.172 1172.46C734.976 1172.27 734.66 1172.27 734.464 1172.46C734.269 1172.66 734.269 1172.98 734.464 1173.17L737.293 1176L734.464 1178.83C734.269 1179.02 734.269 1179.34 734.464 1179.54C734.66 1179.73 734.976 1179.73 735.172 1179.54L738.354 1176.35ZM698 1176.5H738V1175.5H698V1176.5Z" fill="#0A6FB8"/>
<path d="M1258.35 1170.35C1258.55 1170.16 1258.55 1169.84 1258.35 1169.65L1255.17 1166.46C1254.98 1166.27 1254.66 1166.27 1254.46 1166.46C1254.27 1166.66 1254.27 1166.98 1254.46 1167.17L1257.29 1170L1254.46 1172.83C1254.27 1173.02 1254.27 1173.34 1254.46 1173.54C1254.66 1173.73 1254.98 1173.73 1255.17 1173.54L1258.35 1170.35ZM1218 1170.5H1258V1169.5H1218V1170.5Z" fill="#0A6FB8"/>
<defs>
<filter id="filter0_f_4021_3864" x="121.481" y="1500.95" width="1075.1" height="1075.1" filterUnits="userSpaceOnUse" color-interpolation-filters="sRGB">
<feFlood flood-opacity="0" result="BackgroundImageFix"/>
<feBlend mode="normal" in="SourceGraphic" in2="BackgroundImageFix" result="shape"/>
<feGaussianBlur stdDeviation="69.65" result="effect1_foregroundBlur_4021_3864"/>
</filter>
</defs>
</svg>
