<svg width="1177" height="1670" viewBox="0 0 1177 1670" fill="none" xmlns="http://www.w3.org/2000/svg">
<rect x="268.982" y="1208.99" width="23.3832" height="100.527" rx="11.6916" transform="rotate(45 268.982 1208.99)" fill="#EEF8FF"/>
<g filter="url(#filter0_f_4023_3869)">
<ellipse cx="393.553" cy="1097.24" rx="139.901" ry="178.83" transform="rotate(-45 393.553 1097.24)" fill="#3D90CD" fill-opacity="0.2"/>
</g>
<path d="M701.131 1105.67C685.386 1121.41 659.86 1121.41 644.115 1105.67L517.257 978.807C501.513 963.062 501.513 937.536 517.257 921.792L964.541 474.508C980.285 458.764 1005.81 458.763 1021.56 474.508L1148.41 601.366C1164.16 617.111 1164.16 642.637 1148.41 658.382L701.131 1105.67Z" fill="white"/>
<path d="M722.869 1640.84C707.125 1656.59 681.598 1656.59 665.854 1640.84L375.304 1350.29C359.559 1334.55 359.559 1309.02 375.304 1293.28L526.482 1142.1C542.226 1126.35 567.753 1126.35 583.497 1142.1L874.047 1432.65C889.791 1448.39 889.791 1473.92 874.047 1489.66L722.869 1640.84Z" fill="#035EA1"/>
<path d="M402.383 889.613C386.638 905.357 361.112 905.357 345.367 889.613L182.556 726.801C166.811 711.056 166.811 685.53 182.556 669.786L756.962 95.3791C772.706 79.6348 798.233 79.6348 813.977 95.3791L976.789 258.191C992.533 273.935 992.533 299.462 976.789 315.206L402.383 889.613Z" fill="#025EA1"/>
<path fill-rule="evenodd" clip-rule="evenodd" d="M198.751 833.986C199.779 832.71 200.886 831.477 202.07 830.293L267.638 764.725C285.579 746.784 314.667 746.784 332.608 764.725C350.549 782.666 350.549 811.754 332.608 829.696L302.048 860.256L619.261 1177.47C635.005 1193.21 635.005 1218.74 619.261 1234.48L422.68 1431.07C406.935 1446.81 381.409 1446.81 365.664 1431.07L12.1754 1077.58C-3.5689 1061.83 -3.56887 1036.31 12.1754 1020.56L198.751 833.986Z" fill="#003274"/>
<rect x="353.197" y="974.651" width="109.454" height="188.453" rx="54.7269" transform="rotate(-135 353.197 974.651)" fill="#025EA1"/>
<rect x="178.832" y="835" width="23.3832" height="107.518" rx="11.6916" transform="rotate(45 178.832 835)" fill="#FD6925"/>
<rect x="866.459" y="588.991" width="23.3832" height="100.527" rx="11.6916" transform="rotate(45 866.459 588.991)" fill="#EEF8FF"/>
<rect x="859.203" y="1031.61" width="23.3832" height="100.527" rx="11.6916" transform="rotate(45 859.203 1031.61)" fill="#EEF8FF"/>
<rect x="848.27" y="224.091" width="135.081" height="181.698" rx="20" transform="rotate(-135 848.27 224.091)" fill="#03326F"/>
<rect x="787.328" y="61.3252" width="96.2226" height="153.837" rx="48.1113" transform="rotate(43.0026 787.328 61.3252)" fill="#025EA1"/>
<rect x="658.828" y="178.325" width="23.3832" height="107.518" rx="11.6916" transform="rotate(45 658.828 178.325)" fill="#FD6925"/>
<rect x="199.008" y="275.518" width="23.3832" height="100.527" rx="11.6916" transform="rotate(45 199.008 275.518)" fill="#EEF8FF"/>
<rect x="421.828" y="378.325" width="23.3832" height="107.518" rx="11.6916" transform="rotate(45 421.828 378.325)" fill="#259789"/>
<line x1="409.262" y1="419.646" x2="429.42" y2="419.646" stroke="#6CACE4" stroke-width="0.403158"/>
<path d="M425.531 474.351C425.609 474.272 425.609 474.144 425.531 474.065L424.248 472.783C424.169 472.704 424.041 472.704 423.963 472.783C423.884 472.861 423.884 472.989 423.963 473.068L425.103 474.208L423.963 475.348C423.884 475.427 423.884 475.555 423.963 475.633C424.041 475.712 424.169 475.712 424.248 475.633L425.531 474.351ZM409.262 474.41H425.388V474.006H409.262V474.41Z" fill="#0A6FB8"/>
<path d="M635.173 471.932C635.252 471.853 635.252 471.725 635.173 471.647L633.89 470.364C633.812 470.285 633.684 470.285 633.605 470.364C633.527 470.442 633.527 470.57 633.605 470.649L634.746 471.789L633.605 472.929C633.527 473.008 633.527 473.136 633.605 473.214C633.684 473.293 633.812 473.293 633.89 473.214L635.173 471.932ZM618.904 471.991H635.031V471.587H618.904V471.991Z" fill="#0A6FB8"/>
<path d="M610.89 628.484C610.977 628.396 610.977 628.254 610.89 628.167L609.463 626.741C609.376 626.653 609.234 626.653 609.146 626.741C609.059 626.828 609.059 626.97 609.146 627.057L610.414 628.325L609.146 629.593C609.059 629.68 609.059 629.822 609.146 629.91C609.234 629.997 609.376 629.997 609.463 629.91L610.89 628.484ZM592.803 628.549H610.731V628.101H592.803V628.549Z" fill="#0A6FB8"/>
<defs>
<filter id="filter0_f_4023_3869" x="176.836" y="880.519" width="433.433" height="433.434" filterUnits="userSpaceOnUse" color-interpolation-filters="sRGB">
<feFlood flood-opacity="0" result="BackgroundImageFix"/>
<feBlend mode="normal" in="SourceGraphic" in2="BackgroundImageFix" result="shape"/>
<feGaussianBlur stdDeviation="28.0799" result="effect1_foregroundBlur_4023_3869"/>
</filter>
</defs>
</svg>
