<svg width="877" height="1512" viewBox="0 0 877 1512" fill="none" xmlns="http://www.w3.org/2000/svg">
<path d="M351.58 914.548C343.831 922.297 331.267 922.297 323.518 914.548L218.097 809.127C210.347 801.378 210.347 788.814 218.097 781.065L556.13 443.031C563.88 435.282 576.443 435.282 584.193 443.031L689.614 548.452C697.363 556.201 697.363 568.765 689.614 576.514L351.58 914.548Z" fill="white"/>
<rect x="675.982" y="319.223" width="16.975" height="72.9779" rx="8.48751" transform="rotate(45 675.982 319.223)" fill="#EEF8FF"/>
<path d="M390.314 637.945C382.565 645.695 370.001 645.695 362.252 637.945L185.254 460.948C177.505 453.199 177.505 440.635 185.254 432.886L547.852 70.2881C555.601 62.539 568.165 62.539 575.914 70.2881L752.912 247.286C760.661 255.035 760.661 267.599 752.912 275.348L390.314 637.945Z" fill="#025EA1"/>
<line x1="286.998" y1="311.539" x2="300.998" y2="311.539" stroke="#6CACE4" stroke-width="0.198429"/>
<rect x="612.055" y="0.806641" width="69.8529" height="145.131" rx="34.9264" transform="rotate(43.0026 612.055 0.806641)" fill="#025EA1"/>
<g filter="url(#filter0_f_4023_3873)">
<ellipse cx="412.679" cy="751.612" rx="101.561" ry="129.822" transform="rotate(-45 412.679 751.612)" fill="#3D90CD" fill-opacity="0.2"/>
</g>
<rect x="527.258" y="83" width="16.975" height="78.0527" rx="8.48751" transform="rotate(45 527.258 83)" fill="#FD6925"/>
<path fill-rule="evenodd" clip-rule="evenodd" d="M371.294 491.183C361.141 501.337 361.141 517.799 371.294 527.953L870.3 1026.96C878.049 1034.71 878.049 1047.27 870.3 1055.02L584.515 1340.8C576.766 1348.55 564.202 1348.55 556.453 1340.8L6.51305 790.864C-1.23609 783.115 -1.23613 770.551 6.51301 762.802L292.298 477.018C292.733 476.582 293.184 476.171 293.649 475.784C295.442 474.291 297.372 472.949 299.022 471.299L328.282 442.039C341.006 429.315 361.636 429.315 374.36 442.039C387.084 454.763 387.084 475.393 374.36 488.118L371.294 491.183Z" fill="#003274"/>
<rect x="398.053" y="631.037" width="120.662" height="156.262" rx="60.3309" transform="rotate(-135 398.053 631.037)" fill="#025EA1"/>
<rect x="449" y="1427.19" width="205.335" height="119.702" rx="59.8512" transform="rotate(-45 449 1427.19)" fill="#025EA1"/>
<rect x="681.252" y="44.1309" width="16.975" height="72.9779" rx="8.48751" transform="rotate(45 681.252 44.1309)" fill="#EEF8FF"/>
<defs>
<filter id="filter0_f_4023_3873" x="268.482" y="607.414" width="288.394" height="288.395" filterUnits="userSpaceOnUse" color-interpolation-filters="sRGB">
<feFlood flood-opacity="0" result="BackgroundImageFix"/>
<feBlend mode="normal" in="SourceGraphic" in2="BackgroundImageFix" result="shape"/>
<feGaussianBlur stdDeviation="13.8206" result="effect1_foregroundBlur_4023_3873"/>
</filter>
</defs>
</svg>
