<svg width="85" height="71" viewBox="0 0 85 71" fill="none" xmlns="http://www.w3.org/2000/svg">
<g clip-path="url(#clip0_2052_14)">
<path d="M46.9373 20.95C46.9343 23.3811 44.9464 25.3481 42.4979 25.3466C40.048 25.3452 38.063 23.3722 38.0645 20.9426C38.0674 18.5115 40.0569 16.5444 42.5054 16.5459C44.9538 16.5489 46.9388 18.5203 46.9373 20.95Z" fill="white"/>
<path d="M42.5422 0C39.3412 0 36.3056 0.704946 33.5859 1.96409C37.2042 1.59463 40.9626 3.139 43.7374 5.91741C43.7374 5.91741 43.7389 5.91741 43.7404 5.91741C45.1278 7.27557 46.3438 9.03867 47.3781 11.1594C53.2645 12.2043 57.2613 9.30469 58.8365 7.58888C54.9559 2.95279 49.0978 0 42.5422 0Z" fill="white"/>
<path d="M29.8018 4.22341C26.9018 6.39293 24.583 9.2866 23.1211 12.631C24.8796 13.0596 30.1431 14.7562 32.5573 21.2101C33.283 20.9751 34.8492 20.0721 35.9356 16.5843C37.2679 12.3118 39.6955 8.18854 42.8443 6.36337C39.3751 3.02929 34.1071 1.57063 29.8018 4.22341Z" fill="white"/>
<path d="M60.8614 31.4216C62.4619 28.6772 63.3635 25.7214 63.6213 22.7598C62.1355 26.0466 58.9047 28.4969 55.0882 29.487C55.0882 29.487 55.0882 29.4885 55.0882 29.49C53.206 29.9999 51.0556 30.1624 48.6847 29.988C44.8279 34.5118 45.3644 39.3888 46.0782 41.5982C52.072 40.5888 57.5843 37.0419 60.8614 31.4216Z" fill="white"/>
<path d="M63.5385 18.3864C63.0899 14.8144 61.7189 11.3813 59.5253 8.45508C58.2705 9.74822 54.1559 13.4133 47.3024 12.2562C47.1444 12.9966 47.1518 14.7907 49.6584 17.4657C52.7298 20.7451 55.1231 24.8876 55.1455 28.4995C59.798 27.1916 63.7069 23.4038 63.5385 18.3879V18.3864Z" fill="white"/>
<path d="M24.2168 31.4183C25.8173 34.1627 27.9513 36.4135 30.4132 38.116C28.2806 35.1987 27.7531 31.204 28.7948 27.4369C28.7948 27.4369 28.7933 27.4369 28.7918 27.4354C29.2865 25.5659 30.2194 23.6432 31.5577 21.6969C29.5294 16.1282 24.9932 14.1494 22.7057 13.6572C22.7057 13.6572 22.7057 13.6572 22.7042 13.6572C20.5895 19.3012 20.9368 25.8009 24.2153 31.4213L24.2168 31.4183Z" fill="white"/>
<path d="M34.2825 40.2311C37.6311 41.6336 41.3209 42.1745 44.9779 41.7562C44.4742 40.0345 43.3253 34.6743 47.7647 29.3761C47.1969 28.8706 45.6232 27.9795 42.0302 28.7923C37.6266 29.7855 32.8057 29.7662 29.636 27.9795C28.4542 32.6215 29.8118 37.8679 34.284 40.2311H34.2825Z" fill="white"/>
<path d="M63.6328 61.6526V61.2344H21.3683V61.6526H63.6328Z" fill="white"/>
<path d="M4.19203 55.3443H1.45447L0.831551 57.0409H0L2.44398 50.6875H3.26808L5.66587 57.0409H4.80601L4.19352 55.3443H4.19203ZM1.72122 54.5994H3.92677L2.85529 51.6126H2.81803L1.71973 54.5994H1.72122Z" fill="white"/>
<path d="M9.11663 57.0409H8.29253V51.4501H6.39844V50.6875H11.0107V51.4501H9.11663V57.0409Z" fill="white"/>
<path d="M12.4727 53.8652C12.4727 51.8317 13.6529 50.5977 15.3473 50.5977C17.2518 50.5977 18.2756 51.941 18.2756 53.8652C18.2756 56.0259 17.0492 57.1328 15.3741 57.1328C13.5978 57.1328 12.4727 55.8796 12.4727 53.8652ZM17.3964 53.8652C17.3964 52.1228 16.6095 51.3602 15.3458 51.3602C14.2207 51.3602 13.3504 52.1686 13.3504 53.8652C13.3504 55.5618 14.1924 56.3702 15.4561 56.3702C16.7198 56.3702 17.3964 55.5086 17.3964 53.8652Z" fill="white"/>
<path d="M26.8237 57.0409H25.9996L25.6062 52.0767L23.9863 57.0409H23.1265L21.5155 52.0944L21.1132 57.0409H20.2891L20.839 50.6875H21.8464L23.5765 56.1512L25.2694 50.6875H26.2768L26.8267 57.0409H26.8237Z" fill="white"/>
<path d="M33.9795 57.0409H33.1554V51.9215L30.0438 57.0409H29.1094V50.6875H29.9335V55.8069L33.0451 50.6875H33.978V57.0409H33.9795Z" fill="white"/>
<path d="M41.4309 57.0409H40.6068V54.1176H37.3671V57.0409H36.543V50.6875H37.3671V53.3743H40.6068V50.6875H41.4309V57.0409Z" fill="white"/>
<path d="M46.0698 57.0409H45.2456V51.4501H43.3516V50.6875H47.9638V51.4501H46.0698V57.0409Z" fill="white"/>
<path d="M53.4648 57.0409H49.8867V50.6875H53.4648V51.4501H50.7093V53.3743H53.2263V54.1191H50.7093V56.2798H53.4648V57.0424V57.0409Z" fill="white"/>
<path d="M60.4822 57.0409H59.6581V51.4501H57.4615C57.4347 55.0901 57.2782 57.1133 55.7045 57.1133C55.5301 57.1133 55.4571 57.0956 55.3379 57.0586V56.2694C55.4392 56.296 55.5033 56.296 55.6032 56.296C56.2708 56.296 56.5822 55.4522 56.6284 51.422L56.6374 50.6875H60.4807V57.0409H60.4822Z" fill="white"/>
<path d="M69.3042 57.0409H68.4801L68.0867 52.0767L66.4668 57.0409H65.6069L63.996 52.0944L63.5936 57.0409H62.7695L63.3194 50.6875H64.3268L66.057 56.1512L67.7499 50.6875H68.7573L69.3072 57.0409H69.3042Z" fill="white"/>
<path d="M75.0534 55.3443H72.3173L71.6944 57.0409H70.8613L73.3053 50.6875H74.1294L76.5272 57.0409H75.6673L75.0549 55.3443H75.0534ZM72.5825 54.5994H74.7881L73.7166 51.6126H73.6794L72.5811 54.5994H72.5825Z" fill="white"/>
<path d="M85.0004 57.0409H78.3555V50.6875H79.1796V56.2783H81.2659V50.6875H82.09V56.2783H84.1763V50.6875H85.0004V57.0409Z" fill="white"/>
<path d="M24.5703 70.9282H23.9102V65.8398H25.4198C26.5851 65.8398 27.3183 66.3202 27.3183 67.4241C27.3183 68.5281 26.5851 69.0527 25.3616 69.0527H24.5703V70.9282ZM24.5703 68.4424H25.3616C26.1753 68.4424 26.6149 68.1158 26.6149 67.4389C26.6149 66.762 26.1753 66.4502 25.3616 66.4502H24.5703V68.4424Z" fill="white"/>
<path d="M28.7109 68.3844C28.7109 66.7558 29.6557 65.7686 31.0119 65.7686C32.5364 65.7686 33.3575 66.8444 33.3575 68.3844C33.3575 70.115 32.3754 71.0002 31.0342 71.0002C29.6125 71.0002 28.7109 69.9968 28.7109 68.3844ZM32.6541 68.3844C32.6541 66.9893 32.0237 66.3789 31.0119 66.3789C30.1103 66.3789 29.4143 67.0262 29.4143 68.3844C29.4143 69.7426 30.0879 70.3899 31.0998 70.3899C32.1117 70.3899 32.6541 69.6997 32.6541 68.3844Z" fill="white"/>
<path d="M38.5763 70.7904C38.2977 70.9219 37.9028 71.0017 37.4557 71.0017C35.8581 71.0017 34.8984 70.013 34.8984 68.4509C34.8984 66.7218 35.8805 65.7686 37.4125 65.7686C37.9981 65.7686 38.3439 65.8705 38.5853 65.9651L38.4601 66.54C38.1382 66.4233 37.7999 66.3804 37.478 66.3804C36.262 66.3804 35.6018 67.078 35.6018 68.3859C35.6018 69.6938 36.3425 70.3913 37.5436 70.3913C37.8655 70.3913 38.2097 70.3337 38.4676 70.2096L38.5778 70.7904H38.5763Z" fill="white"/>
<path d="M43.1841 69.5685H40.992L40.4943 70.9282H39.8281L41.7848 65.8398H42.445L44.3644 70.9282H43.6759L43.1856 69.5685H43.1841ZM41.2051 68.9729H42.971L42.1141 66.5817H42.0843L41.2051 68.9729Z" fill="white"/>
<path d="M47.0522 70.9277H46.3921V66.4512H44.875V65.8408H48.5693V66.4512H47.0522V70.9277Z" fill="white"/>
<path d="M49.6699 68.3844C49.6699 66.7558 50.6147 65.7686 51.9708 65.7686C53.4954 65.7686 54.3165 66.8444 54.3165 68.3844C54.3165 70.115 53.3344 71.0002 51.9932 71.0002C50.5715 71.0002 49.6699 69.9968 49.6699 68.3844ZM53.6131 68.3844C53.6131 66.9893 52.9827 66.3789 51.9708 66.3789C51.0693 66.3789 50.3733 67.0262 50.3733 68.3844C50.3733 69.7426 51.0469 70.3899 52.0588 70.3899C53.0706 70.3899 53.6131 69.6997 53.6131 68.3844Z" fill="white"/>
<path d="M61.0868 70.9282H60.4266L60.1107 66.9527L58.8127 70.9282H58.1242L56.8336 66.9675L56.5117 70.9282H55.8516L56.2912 65.8398H57.0974L58.4818 70.2158L59.8379 65.8398H60.6442L61.0838 70.9282H61.0868Z" fill="white"/>
</g>
<defs>
<clipPath id="clip0_2052_14">
<rect width="85" height="71" fill="white"/>
</clipPath>
</defs>
</svg>
