<svg width="48" height="17" viewBox="0 0 48 17" fill="none" xmlns="http://www.w3.org/2000/svg">
<g clip-path="url(#clip0_2162_4)">
<path d="M8.17978 1.20448C8.51495 1.20448 8.78534 0.935574 8.78534 0.602241C8.78534 0.268908 8.51495 0 8.17978 0C7.84461 0 7.57422 0.268908 7.57422 0.602241C7.57422 0.935574 7.84461 1.20448 8.17978 1.20448Z" fill="#33AD43"/>
<path d="M21.1887 10.3389H19.6875L21.7182 0L25.0784 7.46779L28.4724 0L30.2975 10.3389H28.7963L27.8133 4.54622L25.0052 10.4342L22.2168 4.53501L21.1915 10.3389H21.1887Z" fill="white"/>
<path d="M31.0781 0.0980392H32.6779L35.2269 6.53501L37.8323 0L40.3503 6.53501L42.9866 0.106443H44.5864L40.263 10.3361L37.7449 3.52381L35.196 10.3361L31.0781 0.0980392Z" fill="white"/>
<path d="M46.5195 0H48.001V10.3389H46.5195V0Z" fill="white"/>
<path fill-rule="evenodd" clip-rule="evenodd" d="M20.8995 16.1514C21.2572 16.1514 21.4938 15.9889 21.5699 15.86V16.1178H21.9163V13.0981H21.5699V14.129C21.4403 14.0001 21.2347 13.9133 20.922 13.9133C20.3277 13.9133 19.832 14.3755 19.832 15.0421C19.832 15.7088 20.2742 16.1486 20.9023 16.1486L20.8995 16.1514ZM21.5699 14.5407V15.4119C21.4825 15.5827 21.2685 15.8208 20.9418 15.8208C20.5108 15.8208 20.1954 15.5295 20.1954 15.0365C20.1954 14.5435 20.5531 14.241 20.9615 14.241C21.2431 14.241 21.4375 14.3474 21.567 14.5407H21.5699Z" fill="white"/>
<path fill-rule="evenodd" clip-rule="evenodd" d="M22.9724 13.2606C22.9724 13.143 22.8738 13.0562 22.7555 13.0562C22.6259 13.0562 22.5273 13.143 22.5273 13.2606C22.5273 13.3895 22.6259 13.4763 22.7555 13.4763C22.8738 13.4763 22.9724 13.3895 22.9724 13.2606ZM22.9188 13.9581H22.5724V16.1178H22.9188V13.9581Z" fill="white"/>
<path fill-rule="evenodd" clip-rule="evenodd" d="M24.5724 16.9805C25.1244 16.9805 25.5441 16.6808 25.5441 15.9497V13.9497H25.1864V14.143C25.0878 14.0254 24.8625 13.9077 24.5386 13.9077C23.9443 13.9077 23.457 14.3279 23.457 15.0254C23.457 15.7228 23.888 16.143 24.5386 16.143C24.9047 16.143 25.0568 16.0366 25.1977 15.8741V16.003C25.1977 16.4007 24.9808 16.636 24.5611 16.636C24.2147 16.636 24.0091 16.4735 23.9246 16.3139L23.6119 16.4539C23.7302 16.7761 24.0992 16.9805 24.5724 16.9805ZM25.2005 14.552V15.4231C25.1244 15.6276 24.9076 15.8321 24.5949 15.8209C24.1302 15.8209 23.8288 15.5296 23.8288 15.0366C23.8288 14.5436 24.1865 14.241 24.5949 14.241C24.8878 14.241 25.1019 14.3811 25.2005 14.552Z" fill="white"/>
<path fill-rule="evenodd" clip-rule="evenodd" d="M26.6032 13.2606C26.6032 13.143 26.5046 13.0562 26.3863 13.0562C26.2568 13.0562 26.1582 13.143 26.1582 13.2606C26.1582 13.3895 26.2568 13.4763 26.3863 13.4763C26.5046 13.4763 26.6032 13.3895 26.6032 13.2606ZM26.5497 13.9581H26.2033V16.1178H26.5497V13.9581Z" fill="white"/>
<path d="M26.9833 13.9611H27.4368V13.4121H27.7832V13.9611H28.5296V14.2945H27.7832V15.2412C27.7832 15.6698 27.9015 15.8099 28.1606 15.8099C28.3127 15.8099 28.431 15.7454 28.5493 15.6586L28.7098 15.9163C28.5803 16.0564 28.3634 16.1432 28.093 16.1432C27.6705 16.1432 27.4339 15.8631 27.4339 15.3253V14.2945H26.9805V13.9611H26.9833Z" fill="white"/>
<path fill-rule="evenodd" clip-rule="evenodd" d="M29.9215 13.9051C29.6089 13.9051 29.2625 14.034 29.0568 14.2161L29.2287 14.4738C29.4343 14.3225 29.6286 14.2385 29.8765 14.2385C30.3299 14.2385 30.4595 14.4962 30.4595 14.8827C30.3525 14.8519 30.1131 14.8183 29.9525 14.8183C29.3272 14.8183 28.916 15.0116 28.916 15.485C28.916 15.8827 29.2287 16.1404 29.7047 16.1404C30.0821 16.1404 30.3328 15.978 30.4623 15.7959V16.118H30.8087V14.7735C30.8087 14.2245 30.5074 13.9023 29.9215 13.9023V13.9051ZM30.4623 15.1937V15.4093C30.3863 15.5802 30.1497 15.8295 29.7807 15.8295C29.4878 15.8295 29.285 15.7007 29.285 15.4738C29.285 15.2161 29.5554 15.1292 29.9976 15.1292C30.1694 15.1292 30.3553 15.16 30.4623 15.1937Z" fill="white"/>
<path d="M31.4336 13.0894H31.78V16.1202H31.4336V13.0894Z" fill="white"/>
<path fill-rule="evenodd" clip-rule="evenodd" d="M34.6325 13.9051C34.3198 13.9051 33.9734 14.034 33.7678 14.2161L33.9396 14.4738C34.1452 14.3225 34.3395 14.2385 34.5874 14.2385C35.0409 14.2385 35.1704 14.4962 35.1704 14.8827C35.0634 14.8519 34.824 14.8183 34.6635 14.8183C34.0382 14.8183 33.627 15.0116 33.627 15.485C33.627 15.8827 33.9396 16.1404 34.4156 16.1404C34.793 16.1404 35.0409 15.978 35.1704 15.7959V16.118H35.5169V14.7735C35.5169 14.2245 35.2155 13.9023 34.6297 13.9023L34.6325 13.9051ZM35.1732 15.1937V15.4093C35.0972 15.5802 34.8606 15.8295 34.4916 15.8295C34.2015 15.8295 33.9959 15.7007 33.9959 15.4738C33.9959 15.2161 34.2663 15.1292 34.7085 15.1292C34.8803 15.1292 35.0662 15.16 35.1732 15.1937Z" fill="white"/>
<path fill-rule="evenodd" clip-rule="evenodd" d="M37.1056 16.9805C37.6576 16.9805 38.0773 16.6808 38.0773 15.9497V13.9497H37.7196V14.143C37.621 14.0254 37.3957 13.9077 37.0718 13.9077C36.4775 13.9077 35.9902 14.3279 35.9902 15.0254C35.9902 15.7228 36.424 16.143 37.0718 16.143C37.438 16.143 37.59 16.0366 37.7309 15.8741V16.003C37.7309 16.4007 37.514 16.636 37.0943 16.636C36.7479 16.636 36.5423 16.4735 36.4578 16.3139L36.1451 16.4539C36.2634 16.7761 36.6324 16.9805 37.1056 16.9805ZM37.7224 14.552V15.4231C37.6576 15.6276 37.4408 15.8321 37.1169 15.8209C36.6521 15.8209 36.3508 15.5296 36.3508 15.0366C36.3508 14.5436 36.7085 14.241 37.1169 14.241C37.4098 14.241 37.6238 14.3811 37.7224 14.552Z" fill="white"/>
<path fill-rule="evenodd" clip-rule="evenodd" d="M39.7221 16.1625C40.0798 16.1625 40.3811 16.0113 40.5868 15.7115L40.3586 15.5071C40.229 15.6891 39.9925 15.8292 39.7305 15.8292C39.2883 15.8292 38.9644 15.5939 38.9419 15.1513H40.6487C40.6713 15.0533 40.6712 14.9692 40.6712 14.8936C40.6712 14.2914 40.2375 13.916 39.6657 13.916C38.9419 13.916 38.5645 14.409 38.5645 15.0449C38.5645 15.7227 39.0292 16.1625 39.7221 16.1625ZM40.3051 14.8404H38.9334C38.9869 14.4846 39.2461 14.2269 39.646 14.2381C40.0347 14.2381 40.2826 14.4538 40.3051 14.8404Z" fill="white"/>
<path d="M41.1582 13.961H41.5046V14.2411C41.6455 14.0254 41.9384 13.9189 42.251 13.9189C42.8143 13.9189 43.127 14.2103 43.127 14.8965V16.1206H42.7805V14.9386C42.7805 14.4652 42.5749 14.2495 42.144 14.2495C41.8736 14.2495 41.6258 14.4203 41.5075 14.6893V16.1178H41.161V13.9582L41.1582 13.961Z" fill="white"/>
<path d="M45.654 15.6696C45.4934 15.9805 45.1019 16.1542 44.7583 16.1542C44.0654 16.1542 43.6035 15.7144 43.6035 15.0366C43.6035 14.4035 44.057 13.9077 44.7386 13.9077C45.1273 13.9077 45.4737 14.0786 45.6145 14.3475L45.3442 14.5296C45.1921 14.3251 45.009 14.2382 44.7386 14.2382C44.2964 14.2382 43.9612 14.5716 43.9612 15.0338C43.9612 15.4959 44.2851 15.8293 44.7837 15.8293C45.0428 15.8293 45.2597 15.7004 45.3892 15.4959L45.6596 15.6668L45.654 15.6696Z" fill="white"/>
<path d="M46.2076 16.636C46.2385 16.6472 46.2611 16.6584 46.2949 16.6584C46.4554 16.6584 46.5653 16.552 46.7174 16.2075L46.7821 16.045L45.7344 13.9722H46.1456L46.9568 15.6052L47.5736 13.9722H47.951L47.1286 16.101C46.8357 16.8321 46.6103 17.003 46.3061 17.003C46.2188 17.003 46.1343 16.9806 46.0695 16.9498L46.2104 16.6388L46.2076 16.636Z" fill="white"/>
<path d="M13.4648 10.3277H15.8307L16.3715 9.42569H12.8367L11.2904 13.703L10.3074 11.9411L8.63155 14.9831V1.96631H7.72461V16.8711H8.63155L10.3074 13.689L11.3439 15.8487L11.5918 15.1932L11.8086 14.6358" fill="white"/>
<path d="M2.9067 8.50973H0.529515L0 9.41169H3.5348L5.08109 5.12317L6.05281 6.89628L7.72867 3.85426V16.8683H8.64687V1.96631H7.72867L6.06408 5.14838L5.02758 2.98872L4.77972 3.64418H4.76845L4.56285 4.1932V4.2044" fill="white"/>
</g>
<defs>
<clipPath id="clip0_2162_4">
<rect width="48" height="17" fill="white"/>
</clipPath>
</defs>
</svg>
